<svg version="1.1" xmlns="http://www.w3.org/2000/svg" viewBox="0 0 40 40" width="40" height="40">
<g>
	<path class="social-fill" d="M39.5,1.5h-4.9L23.9,16.7l-4.2-4.2c-0.6-0.6-1.4-0.9-2.2-0.9c-0.8,0-1.6,0.3-2.2,0.9l-1.9,1.9c-0.1-0.1-0.2-0.3-0.3-0.4
		c-2.6-3.1-7.2-3.4-10.3-0.8S-0.6,20.4,2,23.5c0.6,0.7,1.3,1.3,2.1,1.7c0,0.8,0.3,1.6,0.9,2.2l10.4,10.4c0.6,0.6,1.4,0.9,2.2,0.9
		c0.8,0,1.6-0.3,2.2-0.9L30,27.3c0.6-0.6,0.9-1.4,0.9-2.2c0-0.8-0.3-1.6-0.9-2.2l-1.2-1.2l11.2-9V1.4L39.5,1.5z M16.6,13.9
		c0.2-0.2,0.5-0.3,0.8-0.3s0.6,0.1,0.8,0.3l4.5,4.5l-5,6.6c-0.5,0.5-0.9,0.3-1.1,0.1c-0.1-0.1-1.2-1.6-2.7-3.5
		c0.7-1.7,0.8-3.6,0.2-5.3L16.6,13.9z M28.5,24.3c0.2,0.2,0.3,0.5,0.3,0.8s-0.1,0.6-0.3,0.8L18.1,36.2c-0.2,0.2-0.5,0.3-0.8,0.3
		s-0.6-0.1-0.8-0.3L6.3,25.9c1.2,0.2,2.4,0,3.6-0.4l6.9,5.5c0,0,0.4,0.4,0.8,0l9.6-8.1L28.5,24.3z"/>
</g>
</svg>
