<svg version="1.1" xmlns="http://www.w3.org/2000/svg" viewBox="0 0 40 40" width="40" height="40">
<g>
	<path class="social-fill" d="M20,32.3c-0.7,0-1.5-0.4-2.2-1.1c-0.3-0.3-0.3-0.8,0-1.1c0.3-0.3,0.8-0.3,1.1,0c0.5,0.5,0.8,0.7,1.2,0.7s0.7-0.2,1.2-0.7
		c0.3-0.3,0.8-0.3,1.1,0c0.3,0.3,0.3,0.8,0,1.1C21.5,31.9,20.7,32.3,20,32.3 M0.3,20.5c0,1.9,0.2,3.7,0.5,5.2
		c0.3,1.6,0.8,2.9,1.4,4.1c0.6,1.1,1.3,2.2,2.3,3c0.9,0.9,1.9,1.6,3,2.1c1.1,0.6,2.3,1,3.7,1.4c1.4,0.3,2.8,0.6,4.2,0.7
		c1.4,0.1,3,0.2,4.7,0.2c1.7,0,3.3-0.1,4.7-0.2c1.4-0.1,2.8-0.4,4.2-0.7c1.4-0.3,2.6-0.8,3.7-1.4c1.1-0.6,2.1-1.3,3-2.1
		c0.9-0.9,1.7-1.9,2.3-3s1.1-2.5,1.4-4.1c0.3-1.6,0.5-3.3,0.5-5.2c0-3.4-1.1-6.4-3.2-8.9c0.1-0.3,0.2-0.7,0.3-1.1
		c0.1-0.4,0.2-1,0.3-1.8C37.2,7.9,37.1,7,37,6s-0.4-2.1-0.8-3.1l-0.3-0.1c-0.2,0-0.5,0-1,0c-0.5,0.1-1,0.2-1.6,0.4s-1.4,0.5-2.4,1.1
		c-1,0.5-2,1.2-3.1,2c-1.9-0.6-4.4-1.2-7.7-1.2s-5.8,0.6-7.7,1.2c-1.1-0.8-2.1-1.5-3.1-2S7.5,3.4,6.9,3.2C6.2,3,5.6,2.9,5.1,2.8
		c-0.5-0.1-0.8-0.1-1-0.1c-0.1,0-0.3,0-0.3,0.1C3.4,3.9,3.2,5,3,6C2.9,7,2.8,7.9,2.9,8.7C3,9.4,3.1,10,3.2,10.5
		c0.1,0.4,0.2,0.8,0.3,1.1C1.4,14.1,0.3,17.1,0.3,20.5 M5.6,24.9c0-2.2,0.8-4.3,2.5-6.1c0.5-0.6,1.1-1,1.7-1.3
		c0.6-0.3,1.4-0.4,2.2-0.5c0.8,0,1.6,0,2.4,0c0.8,0.1,1.7,0.1,2.8,0.2c1.1,0.1,2.1,0.1,2.9,0.1s1.8,0,2.9-0.1s2-0.2,2.8-0.2
		c0.8-0.1,1.5-0.1,2.4,0c0.8,0,1.6,0.2,2.2,0.5c0.7,0.3,1.2,0.7,1.7,1.3c1.6,1.8,2.5,3.8,2.5,6.1c0,1.3-0.1,2.5-0.4,3.5
		c-0.3,1-0.6,1.9-1,2.6s-1,1.3-1.8,1.8s-1.5,0.8-2.2,1.1s-1.6,0.5-2.7,0.6s-2.1,0.2-3,0.3c-0.9,0-2,0-3.3,0s-2.4,0-3.3,0
		s-1.9-0.1-3-0.3c-1.1-0.1-2-0.3-2.7-0.6S9.8,33.3,9,32.8c-1-0.5-1.6-1.1-2-1.8s-0.8-1.6-1-2.6C5.7,27.4,5.6,26.2,5.6,24.9
		 M10.1,23.7c0,2,1.1,3.7,2.5,3.7s2.5-1.7,2.5-3.7S14,20,12.6,20C11.3,20,10.1,21.7,10.1,23.7 M24.9,23.7c0,2,1.1,3.7,2.5,3.7
		s2.5-1.7,2.5-3.7S28.8,20,27.4,20S24.9,21.7,24.9,23.7"/>
</g>
</svg>
