<?xml version="1.0" encoding="utf-8"?>
<!-- Generator: Adobe Illustrator 17.1.0, SVG Export Plug-In . SVG Version: 6.00 Build 0)  -->
<!DOCTYPE svg PUBLIC "-//W3C//DTD SVG 1.1//EN" "http://www.w3.org/Graphics/SVG/1.1/DTD/svg11.dtd">
<svg version="1.1" id="Layer_1" xmlns="http://www.w3.org/2000/svg" xmlns:xlink="http://www.w3.org/1999/xlink" x="0px" y="0px"
	 viewBox="0 0 40.3 40.3" enable-background="new 0 0 40.3 40.3" xml:space="preserve">
<g>
	<path d="M34.9,0.2H5.1c-2.7,0-5,2.2-5,5V35c0,2.7,2.2,5,5,5H35c2.7,0,5-2.2,5-5V5.2C39.9,2.4,37.7,0.2,34.9,0.2 M20,15.1
		c4.6,0,5,5,5,5s0.1,5-5,5s-5-5-5-5S15.4,15.1,20,15.1 M35.3,32.5c0,1.4-1.6,2.9-3,2.9H7.5c-1.4,0-2.9-1.5-2.9-2.9V20.1
		c0-1.4,1.6-2.8,3-2.8h2.8c-0.2,0.8-0.4,2-0.4,2.8c0,5.5,4.5,10,10,10s10-4.5,10-10c0-0.9-0.1-2-0.4-2.8h2.8c1.4,0,2.9,1.4,2.9,2.8
		C35.3,20.1,35.3,32.5,35.3,32.5z M34.9,10.1c0,1.4-1.1,2.5-2.5,2.5H30c-1.4,0-2.5-1.1-2.5-2.5V7.6c0-1.4,1.1-2.5,2.5-2.5h2.5
		c1.4,0,2.5,1.1,2.5,2.5L34.9,10.1L34.9,10.1z"/>
</g>
</svg>
