<?xml version="1.0" encoding="utf-8"?>
<!-- Generator: Adobe Illustrator 17.1.0, SVG Export Plug-In . SVG Version: 6.00 Build 0)  -->
<!DOCTYPE svg PUBLIC "-//W3C//DTD SVG 1.1//EN" "http://www.w3.org/Graphics/SVG/1.1/DTD/svg11.dtd">
<svg version="1.1" id="Layer_1" xmlns="http://www.w3.org/2000/svg" xmlns:xlink="http://www.w3.org/1999/xlink" x="0px" y="0px"
	 viewBox="0 0 40 40" enable-background="new 0 0 40 40" xml:space="preserve">
<g>
	<path d="M15.7,25.2c-0.8,0.8-2.4,2.3-5.1,2.3c-3.2,0-6.2-2.8-6.2-7.2c0-5.7,3.6-7.5,6.4-7.5c4,0,4.9,2.4,6,5.8l1.5,4.6
		c1.5,4.5,4.2,8.1,12.1,8.1c5.7,0,9.5-1.8,9.5-6.4c0-3.7-2.1-5.7-6-6.6L31,17.6c-2-0.5-2.6-1.3-2.6-2.7c0-1.6,1.2-2.5,3.3-2.5
		c2.2,0,3.4,0.8,3.6,2.8l4.6-0.6c-0.4-4.2-3.2-5.9-7.9-5.9c-4.1,0-8.2,1.6-8.2,6.6c0,3.1,1.5,5.1,5.3,6.1l3.1,0.7
		c2.3,0.6,3.1,1.5,3.1,2.9c0,1.7-1.7,2.4-4.8,2.4c-4.6,0-7-2.4-8.1-5.8L21,17c-1.9-6-4.2-8.2-10.3-8.2C5.3,8.8,0,13.1,0,20.4
		c0,7,5.1,10.8,10.4,10.8c3.9,0,5.8-1.4,6.8-2L15.7,25.2z"/>
</g>
</svg>
