<svg version="1.1" xmlns="http://www.w3.org/2000/svg" viewBox="0 0 40 40" width="40" height="40">
<g>
	<path class="social-fill" d="M35.5,13.2C35.5,6.4,29.7,0,20.9,0C10,0,4.5,7.8,4.5,14.4c0,3.9,1.5,7.5,4.7,8.8c0.5,0.2,1,0,1.1-0.6
		c0.1-0.4,0.4-1.4,0.5-1.8c0.2-0.6,0.1-0.8-0.3-1.3C9.6,18.3,9,16.9,9,14.9c0-5.8,4.3-11,11.3-11c6.2,0,9.6,3.8,9.6,8.8
		c0,6.6-2.9,12.2-7.3,12.2c-2.4,0-4.2-2-3.6-4.4c0.7-2.9,2-6,2-8.1c0-1.9-1-3.4-3.1-3.4c-2.5,0-4.4,2.5-4.4,5.9
		c0,2.2,0.7,3.6,0.7,3.6s-2.5,10.6-3,12.5c-0.9,3.7-0.1,8.3-0.1,8.7c0,0.3,0.4,0.3,0.5,0.1c0.2-0.3,3.2-3.9,4.1-7.5
		c0.3-1,1.6-6.3,1.6-6.3c0.8,1.5,3.1,2.9,5.6,2.9C30.5,28.9,35.5,22.2,35.5,13.2"/>
</g>
</svg>
