<?xml version="1.0" encoding="utf-8"?>
<!-- Generator: Adobe Illustrator 17.1.0, SVG Export Plug-In . SVG Version: 6.00 Build 0)  -->
<!DOCTYPE svg PUBLIC "-//W3C//DTD SVG 1.1//EN" "http://www.w3.org/Graphics/SVG/1.1/DTD/svg11.dtd">
<svg version="1.1" id="Layer_1" xmlns="http://www.w3.org/2000/svg" xmlns:xlink="http://www.w3.org/1999/xlink" x="0px" y="0px"
	 viewBox="0 0 40 40" enable-background="new 0 0 40 40" xml:space="preserve">
<g>
	<path d="M33.3,17.8c5.1-1.5,8.1-6.8,5.9-6.9C33.8,10.6,29,8,25.9,6c-0.3-0.2-0.7-0.4-1-0.6v12.2c0,4-2.5,7.3-5.3,8.6
		c-4.1,1.9-8.7,0.7-10.2-2.7s0.5-7.8,4.6-9.8c2.3-1.1,4.7-1.2,6.6-0.5V3.8c-1.2-0.3-2.5-0.5-3.9-0.5C7.5,3.3,0,10.8,0,20
		s7.5,16.7,16.7,16.7S33.4,29.2,33.4,20C33.5,19.3,33.4,18.5,33.3,17.8z"/>
</g>
</svg>
