<?xml version="1.0" encoding="utf-8"?>
<!-- Generator: Adobe Illustrator 17.1.0, SVG Export Plug-In . SVG Version: 6.00 Build 0)  -->
<!DOCTYPE svg PUBLIC "-//W3C//DTD SVG 1.1//EN" "http://www.w3.org/Graphics/SVG/1.1/DTD/svg11.dtd">
<svg version="1.1" id="Layer_1" xmlns="http://www.w3.org/2000/svg" xmlns:xlink="http://www.w3.org/1999/xlink" x="0px" y="0px"
	 viewBox="0 0 40.1 41.3" enable-background="new 0 0 40.1 41.3" xml:space="preserve">
<g>
	<path d="M1.3,26.9L2,24.1l-0.7-2.9c0-0.1-0.2-0.2-0.4-0.2s-0.4,0.1-0.4,0.2L0,24.1l0.6,2.8c0,0.1,0.2,0.2,0.4,0.2S1.3,27,1.3,26.9
		 M5.4,28.5L6,24.1l-0.6-6.7c0-0.2-0.2-0.3-0.5-0.3s-0.5,0.1-0.5,0.3L4,24.1l0.5,4.3c0,0.2,0.2,0.3,0.5,0.3
		C5.2,28.8,5.4,28.6,5.4,28.5 M9.5,28.4l0.5-4.3l-0.5-8.9c0-0.2-0.3-0.4-0.6-0.4S8.3,15,8.3,15.2L8,24.1l0.4,4.3
		c0,0.2,0.3,0.4,0.6,0.4C9.3,28.8,9.5,28.6,9.5,28.4 M13.6,28.3l0.4-4.2l-0.4-9c0-0.2-0.3-0.4-0.6-0.4c-0.4,0-0.6,0.2-0.6,0.4
		l-0.3,9l0.3,4.2c0,0.2,0.3,0.4,0.6,0.4C13.3,28.8,13.6,28.6,13.6,28.3 M17.7,28.3l0.3-4.1l-0.3-10.3c0-0.3-0.3-0.5-0.7-0.5
		c-0.4,0-0.7,0.2-0.7,0.5L16,24.1l0.3,4.1c0,0.3,0.3,0.5,0.7,0.5C17.4,28.8,17.7,28.6,17.7,28.3 M20.6,28.8c0,0,14.2,0,14.3,0
		c2.8,0,5.2-2.2,5.2-5s-2.3-5-5.2-5c-0.7,0-1.4,0.1-2,0.4c-0.4-4.5-4.3-8-9.1-8c-1.2,0-2.3,0.2-3.3,0.6c-0.4,0.1-0.5,0.3-0.5,0.6
		v15.8C20,28.5,20.2,28.8,20.6,28.8"/>
</g>
</svg>
