<?xml version="1.0" encoding="utf-8"?>
<!-- Generator: Adobe Illustrator 17.1.0, SVG Export Plug-In . SVG Version: 6.00 Build 0)  -->
<!DOCTYPE svg PUBLIC "-//W3C//DTD SVG 1.1//EN" "http://www.w3.org/Graphics/SVG/1.1/DTD/svg11.dtd">
<svg version="1.1" id="Layer_1" xmlns="http://www.w3.org/2000/svg" xmlns:xlink="http://www.w3.org/1999/xlink" x="0px" y="0px"
	 viewBox="0 0 40 39" enable-background="new 0 0 40 39" xml:space="preserve">
<path d="M40,7.7c-1.5,0.6-3,1.1-4.7,1.3c1.7-1,3-2.6,3.6-4.5c-1.6,0.9-3.3,1.6-5.2,2c-1.5-1.6-3.6-2.6-6-2.6c-4.5,0-8.2,3.7-8.2,8.2
	c0,0.6,0.1,1.3,0.2,1.9c-6.8-0.3-12.9-3.6-16.9-8.5c-0.7,1-1.1,2.4-1.1,3.9c0,2.8,1.4,5.3,3.6,6.8c-1.3,0-2.6-0.4-3.7-1v0.1
	c0,4,2.8,7.3,6.6,8c-0.7,0.2-1.4,0.3-2.2,0.3c-0.5,0-1-0.1-1.5-0.1c1,3.2,4.1,5.6,7.7,5.7C9.4,31.3,5.8,32.6,2,32.6
	c-0.7,0-1.3,0-2-0.1c3.6,2.3,7.9,3.7,12.6,3.7c15.1,0,23.3-12.4,23.3-23.2c0-0.4,0-0.7,0-1.1C37.5,10.7,38.9,9.3,40,7.7L40,7.7z"/>
</svg>
